<svg width="180" height="180" viewBox="0 0 180 180" fill="none" xmlns="http://www.w3.org/2000/svg">
<rect width="180" height="180" fill="white"/>
<path fill-rule="evenodd" clip-rule="evenodd" d="M71.1505 23.1514L139.522 41.4715C148.962 44.001 154.564 53.7043 152.035 63.1444L130.28 144.336C127.75 153.776 118.047 159.378 108.607 156.849L40.2353 138.528C30.7952 135.999 25.193 126.296 27.7225 116.855L49.4776 35.6643C52.0071 26.2242 61.7104 20.622 71.1505 23.1514ZM68.8605 31.6979C64.1404 30.4331 59.2888 33.2342 58.024 37.9543L36.2689 119.146C35.0042 123.866 37.8053 128.717 42.5254 129.982L110.897 148.302C115.617 149.567 120.469 146.766 121.733 142.046L143.488 60.8544C144.753 56.1344 141.952 51.2827 137.232 50.018L68.8605 31.6979Z" fill="#111111"/>
<path d="M67.409 54.2092C68.0414 51.8492 70.4672 50.4486 72.8273 51.081L124.106 64.8211C126.466 65.4534 127.867 67.8792 127.234 70.2393C126.602 72.5993 124.176 73.9999 121.816 73.3675L70.5373 59.6274C68.1772 58.9951 66.7767 56.5692 67.409 54.2092Z" fill="#111111"/>
<path d="M61.684 75.5753C62.3164 73.2153 64.7422 71.8147 67.1022 72.4471L118.381 86.1872C120.741 86.8195 122.141 89.2454 121.509 91.6054C120.877 93.9654 118.451 95.366 116.091 94.7336L64.8122 80.9935C62.4522 80.3612 61.0516 77.9353 61.684 75.5753Z" fill="#111111"/>
<path d="M55.959 96.9414C56.5913 94.5814 59.0172 93.1808 61.3772 93.8132L91.2898 101.828C93.6498 102.461 95.0503 104.886 94.418 107.246C93.7856 109.607 91.3598 111.007 88.9997 110.375L59.0872 102.36C56.7272 101.727 55.3266 99.3014 55.959 96.9414Z" fill="#111111"/>
</svg>
